<?xml version="1.0" encoding="utf-8"?>
<!-- Generator: Adobe Illustrator 21.1.0, SVG Export Plug-In . SVG Version: 6.00 Build 0)  -->
<svg version="1.1" id="Слой_1" xmlns="http://www.w3.org/2000/svg" xmlns:xlink="http://www.w3.org/1999/xlink" x="0px" y="0px"
	 viewBox="0 0 204 205" style="enable-background:new 0 0 204 205;" xml:space="preserve">
<style type="text/css">
	.st0{fill:#FA2B56;}
</style>
<g>
	<path id="Иконка_линейка-2" class="st0" d="M186.3,205H17.7C7.9,205,0,197.4,0,187.9V17.1C0,7.6,7.9,0,17.7,0h168.5
		c9.8,0,17.7,7.6,17.7,17.1v170.8C204,197.4,196.1,205,186.3,205z M41.4,34.2c-3.3,0-5.9,2.6-5.9,5.7v125.3c0,3.1,2.7,5.7,5.9,5.7
		h20.7c1.6,0,3-1.3,3-2.8v-15.7c0-1.6-1.3-2.9-3-2.9H50.3c-2.4,0-4.4-1.9-4.4-4.3s2-4.3,4.4-4.3h11.8c1.6,0,3-1.3,3-2.8v-14.2
		c0-1.6-1.3-2.9-3-2.9H50.3c-2.4,0-4.4-1.9-4.4-4.3s2-4.3,4.4-4.3h11.8c1.6,0,3-1.3,3-2.9V95.4c0-1.6-1.3-2.8-3-2.8H50.3
		c-2.4,0-4.4-1.9-4.4-4.3s2-4.3,4.4-4.3h11.8c1.6,0,3-1.3,3-2.8V65.5c0-1.6,1.3-2.8,3-2.8h16.3c1.6,0,3-1.3,3-2.8V48.4
		c0-2.4,2-4.3,4.4-4.3s4.4,1.9,4.4,4.3v11.4c0,1.6,1.3,2.8,3,2.8h14.8c1.6,0,2.9-1.3,3-2.8V48.4c0-2.4,2-4.3,4.4-4.3
		c2.4,0,4.4,1.9,4.4,4.3v11.4c0,1.6,1.3,2.8,3,2.8l0,0h14.8c1.6,0,3-1.3,3-2.8V48.4c0-2.4,2-4.3,4.4-4.3c2.4,0,4.4,1.9,4.4,4.3v11.4
		c0,1.6,1.3,2.8,3,2.8l0,0h16.3c1.6,0,2.9-1.3,2.9-2.8V39.9c0-3.1-2.6-5.7-5.9-5.7H41.4z"/>
</g>
</svg>
