<?xml version="1.0" encoding="utf-8"?>
<!-- Generator: Adobe Illustrator 21.1.0, SVG Export Plug-In . SVG Version: 6.00 Build 0)  -->
<svg version="1.1" id="Слой_1" xmlns="http://www.w3.org/2000/svg" xmlns:xlink="http://www.w3.org/1999/xlink" x="0px" y="0px"
	 viewBox="0 0 205 205" style="enable-background:new 0 0 205 205;" xml:space="preserve">
<style type="text/css">
	.st0{fill:#FA2B56;}
</style>
<g id="location-target">
	<g>
		<ellipse id="Oval-2" class="st0" cx="103" cy="102.5" rx="34" ry="34.2"/>
	</g>
	<g>
		<path id="Shape-2" class="st0" d="M103,205c-4.7,0-8.5-3.8-8.5-8.5v-13.9c0-2.1-1.5-3.9-3.6-4.2c-32.6-5.3-58.2-31-63.4-63.7
			c-0.3-2.1-2.1-3.6-4.2-3.6H9.5c-4.7,0-8.5-3.8-8.5-8.5S4.8,94,9.5,94h13.8c2.1,0,3.9-1.5,4.2-3.6c5.2-32.8,30.8-58.5,63.4-63.7
			c2.1-0.3,3.6-2.1,3.6-4.2V8.5c0-4.7,3.8-8.5,8.5-8.5s8.5,3.8,8.5,8.5v13.9c0,2.1,1.5,3.9,3.6,4.2c32.6,5.3,58.2,31,63.4,63.7
			c0.3,2.1,2.1,3.6,4.2,3.6h13.8c4.7,0,8.5,3.8,8.5,8.5s-3.8,8.5-8.5,8.5h-13.8c-2.1,0-3.9,1.5-4.2,3.6
			c-5.2,32.8-30.8,58.5-63.4,63.7c-2.1,0.3-3.6,2.1-3.6,4.2v13.9C111.5,201.2,107.7,205,103,205z M103,42.7
			c-32.9,0-59.5,26.8-59.5,59.8s26.6,59.8,59.5,59.8s59.5-26.8,59.5-59.8C162.5,69.5,135.8,42.7,103,42.7z"/>
	</g>
</g>
</svg>
