<?xml version="1.0" encoding="utf-8"?>
<!-- Generator: Adobe Illustrator 21.1.0, SVG Export Plug-In . SVG Version: 6.00 Build 0)  -->
<svg version="1.1" id="Слой_1" xmlns="http://www.w3.org/2000/svg" xmlns:xlink="http://www.w3.org/1999/xlink" x="0px" y="0px"
	 viewBox="0 0 204 204" style="enable-background:new 0 0 204 204;" xml:space="preserve">
<style type="text/css">
	.st0{fill:#FA2B56;}
</style>
<g>
	<path id="Minus-2" class="st0" d="M190.7,204H13.3C6,204,0,198,0,190.7V13.3C0,6,6,0,13.3,0h177.4C198,0,204,6,204,13.3v177.4
		C204,198,198,204,190.7,204z M48.8,93.1c-4.9,0-8.9,4-8.9,8.9s4,8.9,8.9,8.9h42.1c1.2,0,2.2,1,2.2,2.2v42.1c0,4.9,4,8.9,8.9,8.9
		s8.9-4,8.9-8.9v-42.1c0-1.2,1-2.2,2.2-2.2h42.1c4.9,0,8.9-4,8.9-8.9s-4-8.9-8.9-8.9h-42.1c-1.2,0-2.2-1-2.2-2.2V48.8
		c0-4.9-4-8.9-8.9-8.9s-8.9,4-8.9,8.9v42.1c0,1.2-1,2.2-2.2,2.2H48.8z"/>
</g>
</svg>
