<?xml version="1.0" encoding="utf-8"?>
<!-- Generator: Adobe Illustrator 21.1.0, SVG Export Plug-In . SVG Version: 6.00 Build 0)  -->
<svg version="1.1" id="Слой_1" xmlns="http://www.w3.org/2000/svg" xmlns:xlink="http://www.w3.org/1999/xlink" x="0px" y="0px"
	 viewBox="0 0 197 197" style="enable-background:new 0 0 197 197;" xml:space="preserve">
<style type="text/css">
	.st0{fill:#FA2B56;}
</style>
<g>
	<path id="Иконка_цена-2" class="st0" d="M106.7,61.6H92.3c-1.1,0-2.1,0.9-2.1,2.1v28.7c0,1.1,0.9,2.1,2.1,2.1h14.4
		c9.1,0,16.4-7.4,16.4-16.4S115.8,61.6,106.7,61.6z M98.5,0C44.1,0,0,44.1,0,98.5S44.1,197,98.5,197S197,152.9,197,98.5
		S152.9,0,98.5,0z M106.7,110.8H92.3c-1.1,0-2.1,0.9-2.1,2.1v39c-0.2,4.5-4,8.1-8.5,7.9c-4.3-0.2-7.7-3.6-7.9-7.9V53.4
		c0-4.5,3.7-8.2,8.2-8.2h24.6c18.1-0.4,33.1,14.1,33.5,32.2c0.4,18.1-14.1,33.1-32.2,33.5C107.6,110.8,107.1,110.8,106.7,110.8z"/>
</g>
</svg>
