<?xml version="1.0" encoding="utf-8"?>
<!-- Generator: Adobe Illustrator 21.1.0, SVG Export Plug-In . SVG Version: 6.00 Build 0)  -->
<svg version="1.1" id="Слой_1" xmlns="http://www.w3.org/2000/svg" xmlns:xlink="http://www.w3.org/1999/xlink" x="0px" y="0px"
	 viewBox="0 0 204 204" style="enable-background:new 0 0 204 204;" xml:space="preserve">
<style type="text/css">
	.st0{fill:#FA2B56;}
</style>
<g>
	<path id="Print_иконка-2" class="st0" d="M48.9,51c4.7,0,8.5-3.8,8.5-8.5V17h75.1l18.4,18.4v7.1c0,4.7,3.8,8.5,8.5,8.5
		c4.7,0,8.5-3.8,8.5-8.5V31.8c0-2.3-0.9-4.4-2.5-6L144.5,5c-3.2-3.2-7.5-5-12-5H57.4c-9.4,0-17,7.6-17,17c0,0,0,0,0,0v25.5
		C40.4,47.2,44.2,51,48.9,51z M182.7,59.5H21.3C9.6,59.5,0,69,0,80.7V119c0,11.8,9.5,21.3,21.3,21.3h21.3v53.1
		c0,5.8,4.7,10.6,10.6,10.6h102c5.9,0,10.6-4.8,10.6-10.6v0v-53.1h16.9c11.8,0,21.3-9.5,21.3-21.3V80.7
		C204,69,194.4,59.5,182.7,59.5z M29.7,97.8c-4.7,0-8.5-3.8-8.5-8.5c0-4.7,3.8-8.5,8.5-8.5c4.7,0,8.5,3.8,8.5,8.5
		C38.2,93.9,34.4,97.7,29.7,97.8z M148.8,182.7c0,2.3-1.9,4.2-4.2,4.2l0,0H63.8c-2.3,0-4.2-1.9-4.2-4.2l0,0v-76.8
		c0-2.3,1.9-4.2,4.2-4.2l0,0h80.7c2.3,0,4.2,1.9,4.2,4.2l0,0V182.7z M127.5,125.3H80.7c-3.5,0-6.4,2.9-6.4,6.4
		c0,3.5,2.9,6.4,6.4,6.4h46.8c3.5,0,6.4-2.9,6.4-6.4C133.8,128.2,131,125.3,127.5,125.3z M112.6,155.1H80.7c-3.5,0-6.4,2.9-6.4,6.4
		c0,3.5,2.9,6.4,6.4,6.4h31.9c3.5,0.1,6.5-2.6,6.6-6.1c0.1-3.5-2.6-6.5-6.1-6.6C113,155.1,112.8,155.1,112.6,155.1L112.6,155.1z"/>
</g>
</svg>
