<?xml version="1.0" encoding="utf-8"?>
<!-- Generator: Adobe Illustrator 21.1.0, SVG Export Plug-In . SVG Version: 6.00 Build 0)  -->
<svg version="1.1" id="Слой_1" xmlns="http://www.w3.org/2000/svg" xmlns:xlink="http://www.w3.org/1999/xlink" x="0px" y="0px"
	 viewBox="0 0 197 197" style="enable-background:new 0 0 197 197;" xml:space="preserve">
<style type="text/css">
	.st0{fill:#FA2B56;}
</style>
<g>
	<path id="Print_иконка-2" class="st0" d="M47.2,49.3c4.5,0,8.2-3.7,8.2-8.2l0,0V16.4h72.5l17.8,17.8V41
		c-0.2,4.5,3.4,8.3,7.9,8.5c4.5,0.2,8.3-3.4,8.5-7.9c0-0.2,0-0.4,0-0.6V30.8c0-2.2-0.9-4.3-2.5-5.8L139.5,4.8
		c-3.1-3.1-7.2-4.8-11.6-4.8H55.4C46.3,0,39,7.3,39,16.4l0,0V41C39,45.6,42.7,49.2,47.2,49.3z M176.5,57.5h-156
		C9.2,57.5,0,66.6,0,78c0,0,0,0,0,0v36.9c0,11.3,9.2,20.5,20.5,20.5c0,0,0,0,0,0H41v51.3c0,5.7,4.6,10.3,10.3,10.3h98.5
		c5.7,0,10.2-4.6,10.3-10.3v-51.3h16.4c11.3,0,20.5-9.2,20.5-20.5c0,0,0,0,0,0V78C197,66.6,187.8,57.5,176.5,57.5
		C176.5,57.5,176.5,57.5,176.5,57.5z M28.7,94.4c-4.5,0-8.2-3.7-8.2-8.2s3.7-8.2,8.2-8.2c4.5,0,8.2,3.7,8.2,8.2v0
		C36.9,90.7,33.3,94.4,28.7,94.4z M143.6,176.5c0,2.3-1.8,4.1-4.1,4.1l0,0h-78c-2.3,0-4.1-1.8-4.1-4.1l0,0v-74.3
		c0-2.2,1.9-4.1,4.1-4.1h78c2.3,0,4.1,1.8,4.1,4.1V176.5z M123.1,121.1H78c-3.4,0-6.2,2.8-6.2,6.2c0,3.4,2.8,6.2,6.2,6.2h45.1
		c3.4,0,6.2-2.8,6.2-6.2C129.3,123.8,126.5,121.1,123.1,121.1z M108.8,149.8H78c-3.4,0-6.2,2.8-6.2,6.2c0,3.4,2.8,6.2,6.2,6.2h30.8
		c3.4,0,6.2-2.8,6.2-6.2C114.9,152.6,112.2,149.8,108.8,149.8z"/>
</g>
</svg>
