<?xml version="1.0" encoding="utf-8"?>
<!-- Generator: Adobe Illustrator 21.1.0, SVG Export Plug-In . SVG Version: 6.00 Build 0)  -->
<svg version="1.1" id="Слой_1" xmlns="http://www.w3.org/2000/svg" xmlns:xlink="http://www.w3.org/1999/xlink" x="0px" y="0px"
	 viewBox="0 0 204 204" style="enable-background:new 0 0 204 204;" xml:space="preserve">
<style type="text/css">
	.st0{fill:#FA2B56;}
</style>
<g>
	<path id="Поделиться_иконка-2" class="st0" d="M161.5,119c-11.5,0-22.5,4.7-30.5,13l-46.7-23.3
		c0.4-2.2,0.6-4.4,0.7-6.7c0-2.2-0.3-4.5-0.7-6.7L131,72c16.3,16.8,43.2,17.2,60,0.8c16.8-16.3,17.2-43.2,0.8-60s-43.2-17.2-60-0.8
		c-8.2,8-12.9,19-12.9,30.5c0,2.2,0.3,4.5,0.7,6.7L73.1,72.5C56.8,55.6,29.9,55.2,13,71.5s-17.4,43.2-1.1,60.1
		c16.3,16.9,43.2,17.4,60.1,1.1c0.4-0.4,0.7-0.7,1.1-1.1l46.7,23.3c-0.4,2.2-0.6,4.4-0.7,6.7c0,23.5,19,42.5,42.5,42.5
		c23.5,0,42.5-19,42.5-42.5C204,138,185,119,161.5,119z"/>
</g>
</svg>
