<svg xmlns="http://www.w3.org/2000/svg" width="8" height="8" viewBox="0 0 8 8">
    <defs>
        <style>
            .cls-1{fill:#0f358e}
        </style>
    </defs>
    <path id="Крест" d="M4.766 4.06a.083.083 0 0 1 0-.118L7.854.855a.5.5 0 0 0-.708-.707L4.059 3.234a.083.083 0 0 1-.118 0L.854.148a.5.5 0 1 0-.708.707l3.087 3.087a.083.083 0 0 1 0 .118L.146 7.147a.5.5 0 0 0 .707.707l3.088-3.087a.083.083 0 0 1 .118 0l3.087 3.088a.5.5 0 1 0 .707-.707z" class="cls-1" transform="translate(0 -.001)"/>
</svg>
