<?xml version="1.0" encoding="utf-8"?>
<!-- Generator: Adobe Illustrator 21.1.0, SVG Export Plug-In . SVG Version: 6.00 Build 0)  -->
<svg version="1.1" id="Слой_1" xmlns="http://www.w3.org/2000/svg" xmlns:xlink="http://www.w3.org/1999/xlink" x="0px" y="0px"
	 viewBox="0 0 287 218" style="enable-background:new 0 0 287 218;" xml:space="preserve">
<style type="text/css">
	.st0{opacity:0.15;fill:#FFFFFF;enable-background:new    ;}
</style>
<g id="Mask_Group_1" transform="translate(-100 -1243)">
	<path id="Path_701" class="st0" d="M407,1411.2c0.1-3.1-2.3-5.7-5.4-5.8h-24.4c-1.5,0-2.8-1.3-2.7-2.9v-25.7c0-0.7,0.2-1.3,0.6-1.9
		l18.6-23.4c0.5-0.6,1.3-1,2.1-1h5.7c3.1-0.1,5.5-2.7,5.4-5.8c0,0,0,0,0,0c0-2.4-1.4-4.6-3.6-5.5c-1.1-0.4-1.8-1.5-1.8-2.7v-3.4
		c0.2-3-2.1-5.6-5.1-5.8s-5.6,2.1-5.8,5.1c0,0.2,0,0.5,0,0.7v2.9c0.1,1.5-1,2.8-2.5,2.9c-1.5,0.1-2.8-1-2.9-2.5c0-0.1,0-0.2,0-0.4
		v-2.9c0.2-3-2.1-5.6-5.1-5.8c-3-0.2-5.6,2.1-5.8,5.1c0,0.2,0,0.5,0,0.7v2.9c0,1.5-1.2,2.8-2.7,2.9h-5.4c-1.5-0.1-2.8-1.3-2.7-2.9
		v-2.9c0.2-3-2.1-5.6-5.1-5.8c-3-0.2-5.6,2.1-5.8,5.1c0,0.2,0,0.5,0,0.7v2.9c0.1,1.5-1,2.8-2.5,2.9c-1.5,0.1-2.8-1-2.9-2.5
		c0-0.1,0-0.2,0-0.4v-2.9c0.2-3-2.1-5.6-5.1-5.8c-3-0.2-5.6,2.1-5.8,5.1c0,0.2,0,0.5,0,0.7v3.4c0,1.2-0.7,2.3-1.8,2.7
		c-2.9,1.2-4.3,4.4-3.3,7.4c0.7,2.3,2.8,3.8,5.1,3.9h5.7c0.8,0,1.6,0.4,2.1,1L363,1375c0.4,0.5,0.6,1.2,0.6,1.9v25.7
		c0,1.5-1.2,2.8-2.7,2.9h-35.2c-1.5,0-2.8-1.3-2.7-2.9v-61.8c0-0.7,0.2-1.4,0.7-1.9l22.7-27.8c0.5-0.6,1.2-1,2-1h4.4
		c3.1-0.1,5.5-2.7,5.4-5.8c0-2-1-3.8-2.7-4.9c-0.9-0.5-1.4-1.5-1.4-2.5v-4.2c0.2-3-2.1-5.6-5.1-5.8c-3-0.2-5.6,2.1-5.8,5.1
		c0,0.2,0,0.5,0,0.7v2.9c0.1,1.5-1,2.8-2.5,2.9c-1.5,0.1-2.8-1-2.9-2.5c0-0.1,0-0.2,0-0.4v-2.9c0.2-3-2.1-5.6-5.1-5.8
		c-3-0.2-5.6,2.1-5.8,5.1c0,0.2,0,0.5,0,0.7v2.9c0,1.5-1.2,2.8-2.7,2.9h-13.5c-1.5-0.1-2.8-1.3-2.7-2.9v-2.9
		c0.1-3.1-2.3-5.7-5.4-5.8c-3.1,0.1-5.5,2.7-5.4,5.8v2.9c0,1.5-1.2,2.8-2.7,2.9c0,0,0,0,0,0c-1.5-0.1-2.8-1.3-2.7-2.9v-2.9
		c0.1-3.1-2.3-5.7-5.4-5.8c-3.1,0.1-5.5,2.7-5.4,5.8v4.2c0,1-0.5,1.9-1.4,2.5c-1.7,1-2.7,2.9-2.7,4.9c-0.1,3.1,2.3,5.7,5.4,5.8h4.4
		c0.8,0,1.5,0.4,2,1l22.7,27.8c0.4,0.5,0.7,1.2,0.7,1.9v61.8c0,1.5-1.2,2.8-2.7,2.9h-27.1c-3.2,0.2-5.6,3-5.4,6.2
		c0.2,2.9,2.5,5.2,5.4,5.4h119.2C404.7,1416.9,407.1,1414.3,407,1411.2z M374.5,1350.6c1.5,0,2.8,1.3,2.7,2.9c0,0.7-0.2,1.3-0.6,1.9
		l-5.5,6.8c-0.9,1.1-2.5,1.4-3.6,0.5c-0.1,0-0.1-0.1-0.2-0.1c-0.1-0.1-0.2-0.2-0.3-0.3l-5.5-6.8c-1-1.2-0.8-3,0.3-4.1
		c0.5-0.4,1.1-0.7,1.8-0.7H374.5z M326.9,1310.1c1.5,0.1,2.8,1.3,2.7,2.9c0,0.7-0.2,1.4-0.7,1.9l-9.2,11.3c-0.9,1.1-2.5,1.3-3.6,0.4
		c-0.1,0-0.1-0.1-0.2-0.2c-0.1-0.1-0.2-0.2-0.3-0.3l-9.3-11.3c-1-1.2-0.9-3,0.3-4.1c0.5-0.5,1.1-0.7,1.8-0.7H326.9z"/>
</g>
</svg>
