<?xml version="1.0" encoding="utf-8"?>
<!-- Generator: Adobe Illustrator 21.1.0, SVG Export Plug-In . SVG Version: 6.00 Build 0)  -->
<svg version="1.1" id="Слой_1" xmlns="http://www.w3.org/2000/svg" xmlns:xlink="http://www.w3.org/1999/xlink" x="0px" y="0px"
	 viewBox="0 0 287 218" style="enable-background:new 0 0 287 218;" xml:space="preserve">
<style type="text/css">
	.st0{opacity:0.15;fill:#FFFFFF;enable-background:new    ;}
</style>
<g id="Mask_Group_6" transform="translate(-417 -1243)">
	<path id="Path_705" class="st0" d="M642.8,1352.4c2,0,3.7,1.6,3.7,3.7v9.3c0,4.1,3.3,7.4,7.4,7.4s7.4-3.3,7.4-7.4l0,0v-9.3
		c0-2,1.7-3.7,3.7-3.7h11c2.5,0,4.6-2.1,4.6-4.6c0-1.2-0.5-2.4-1.4-3.2l-8.3-10.7c-0.1-0.1-0.1-0.3,0-0.4c0.1-0.1,0.3-0.2,0.4-0.1
		c2.4,0.8,5.1-0.5,5.9-3c0.5-1.7,0.1-3.5-1.1-4.7l-11.3-13.9c-0.1-0.1-0.1-0.3,0-0.5c0.1-0.1,0.2-0.1,0.3-0.1
		c2.4,0.8,5.1-0.5,5.9-2.9c0.6-1.8,0-3.8-1.5-5.1l-13-14c-1.4-1.5-3.7-1.6-5.2-0.2c-0.1,0.1-0.1,0.1-0.2,0.2l-13.1,14
		c-1.9,1.6-2.2,4.6-0.5,6.5c0,0,0,0,0,0c1.2,1.4,3.2,2,5,1.4c0.2-0.1,0.4,0,0.4,0.2c0.1,0.1,0,0.2,0,0.3l-11.1,14
		c-1.8,1.8-1.8,4.7,0.1,6.5c0,0,0,0,0,0c1.2,1.2,3,1.6,4.7,1.1c0.2-0.1,0.3,0,0.4,0.1c0.1,0.1,0.1,0.3,0,0.4l-8.5,10.7
		c-1.8,1.8-1.8,4.6,0,6.4c0,0,0,0,0,0c0.9,0.9,2,1.3,3.3,1.3H642.8z M791.2,1423.8c-0.1-0.2-0.1-0.4,0.1-0.5c0,0,0,0,0,0
		c0.1-0.1,0.3-0.1,0.4-0.1c2.7,0.9,5.6-0.5,6.6-3.2c0.6-1.8,0.2-3.8-1.2-5.2l-12.6-15.5c-0.1-0.1-0.1-0.3,0-0.4
		c0.1-0.1,0.3-0.2,0.4-0.1c2.7,0.8,5.6-0.7,6.5-3.4c0.6-2,0-4.1-1.6-5.4l-14.7-15.9c-1.4-1.5-3.7-1.6-5.2-0.2
		c-0.1,0.1-0.1,0.1-0.2,0.2l-14.8,16c-2.2,1.8-2.5,5-0.7,7.2c0,0,0,0,0,0c1.4,1.6,3.6,2.2,5.6,1.6c0.2-0.1,0.3,0,0.4,0.1
		c0.1,0.1,0.1,0.3,0,0.4l-12.4,15.5c-2,2-1.9,5.3,0.2,7.3c0,0,0,0,0,0c1.4,1.3,3.4,1.8,5.2,1.1c0.2-0.1,0.3,0,0.4,0.1
		c0.1,0.1,0.1,0.3,0,0.4l-9.5,12.1c-2,2-2,5.2,0,7.2c0,0,0,0,0,0c1,1,2.3,1.5,3.6,1.5h13.6c2,0,3.7,1.6,3.7,3.7v9.1
		c0,4.1,3.3,7.4,7.4,7.4c4.1,0,7.4-3.3,7.4-7.4v-9.2c0-2,1.7-3.7,3.7-3.7H797c2.8,0,5.1-2.3,5.1-5.1c0-1.4-0.5-2.7-1.5-3.6
		L791.2,1423.8z M802.6,1305.5c-0.9-0.7-2-1-3-0.8c-81.3,15.1-146.9,74.5-169.6,153.5c-0.5,2,0.6,4,2.6,4.5c0.3,0.1,0.7,0.1,1,0.1
		h59.3c1.5,0,2.9-0.9,3.5-2.3c10-25.2,26.5-47.2,47.8-63.9c0.9-0.7,1.4-1.8,1.4-2.9c0-3.5,1.5-6.9,4.2-9.2l14.6-15.6
		c2.1-2.3,5.1-3.6,8.2-3.5c3.1,0,6.1,1.3,8.2,3.6l2.7,2.9c1,1.1,2.6,1.5,4,1c4.6-1.7,9.2-3.1,14-4.3c1.6-0.4,2.8-1.9,2.8-3.6v-56.6
		C804,1307.2,803.5,1306.2,802.6,1305.5z M673,1439.5c-1.5,3.3-3,6.6-4.3,9.9c-0.8,1.9-2.9,2.8-4.8,2.1c-1.9-0.8-2.8-2.9-2.1-4.8
		l0,0c1.4-3.5,2.9-6.9,4.5-10.3c1-1.8,3.2-2.5,5-1.6C672.9,1435.7,673.7,1437.8,673,1439.5L673,1439.5z M695,1403.9
		c-4.3,5.5-8.4,11.2-12,17.2c-0.7,1.1-1.9,1.8-3.2,1.8c-2,0-3.7-1.6-3.7-3.7c0-0.7,0.2-1.3,0.5-1.9c3.8-6.2,8-12.1,12.5-17.9
		c1.3-1.6,3.6-1.9,5.2-0.6C696,1399.9,696.3,1402.3,695,1403.9C695,1403.9,695,1403.9,695,1403.9z M724.6,1374.2
		c-5.5,4.4-10.7,9-15.6,14c-1.5,1.3-3.9,1.2-5.2-0.4c-1.2-1.4-1.2-3.4,0-4.8c5.1-5.2,10.6-10,16.3-14.6c1.5-1.4,3.9-1.2,5.2,0.3
		c1.4,1.5,1.2,3.8-0.3,5.2c0,0,0,0,0,0C724.8,1374,724.7,1374.1,724.6,1374.2L724.6,1374.2z M760.2,1351.9
		c-6.3,3-12.5,6.4-18.4,10.1c-0.6,0.4-1.3,0.6-2,0.6c-2,0-3.7-1.6-3.8-3.6c0-1.3,0.7-2.6,1.8-3.2c6.2-3.9,12.6-7.4,19.2-10.5
		c1.9-0.8,4,0.2,4.8,2C762.5,1349,761.8,1351,760.2,1351.9L760.2,1351.9z M790.1,1340.8c-3.5,1-7,2.1-10.4,3.2
		c-0.4,0.1-0.8,0.2-1.2,0.2c-2,0-3.7-1.6-3.7-3.7c0-1.6,1-3,2.5-3.5c3.6-1.2,7.2-2.3,10.8-3.3c1.9-0.7,4,0.3,4.7,2.2
		c0.7,1.9-0.3,4-2.2,4.7c0,0,0,0,0,0C790.5,1340.7,790.3,1340.8,790.1,1340.8L790.1,1340.8z"/>
</g>
</svg>
