<?xml version="1.0" encoding="utf-8"?>
<!-- Generator: Adobe Illustrator 21.1.0, SVG Export Plug-In . SVG Version: 6.00 Build 0)  -->
<svg version="1.1" id="Слой_1" xmlns="http://www.w3.org/2000/svg" xmlns:xlink="http://www.w3.org/1999/xlink" x="0px" y="0px"
	 viewBox="0 0 287 218" style="enable-background:new 0 0 287 218;" xml:space="preserve">
<style type="text/css">
	.st0{opacity:0.15;fill:#FFFFFF;enable-background:new    ;}
</style>
<g id="Mask_Group_2" transform="translate(-1051 -1491)">
	<path id="Path_709" class="st0" d="M1326.9,1582c-0.6,0-1.2,0.4-1.4,1l-19.1,68.9c-0.2,0.8,0.2,1.5,1,1.7c0.6,0.2,1.2-0.1,1.5-0.5
		l48.7-68.9c0.5-0.6,0.3-1.5-0.3-2c-0.2-0.2-0.5-0.3-0.8-0.3L1326.9,1582z M1316.6,1583.8c0.2-0.7-0.2-1.5-1-1.8
		c-0.1,0-0.3-0.1-0.4-0.1h-44.5c-0.8,0-1.4,0.6-1.4,1.4c0,0,0,0,0,0c0,0.1,0,0.3,0.1,0.4l22.2,80.1c0.2,0.8,1,1.2,1.7,1
		c0.5-0.1,0.9-0.5,1-1L1316.6,1583.8z M1309.6,1573.5c0.8,0,1.4-0.7,1.4-1.4c0-0.2,0-0.4-0.1-0.6l-16.9-35.7c-0.2-0.4-0.6-0.6-1-0.7
		c-0.4,0-0.8,0.2-1,0.6l-16.9,35.8c-0.3,0.7,0,1.6,0.7,1.9c0.2,0.1,0.4,0.1,0.6,0.1L1309.6,1573.5z M1277,1653.1
		c0.5,0.6,1.3,0.8,2,0.3c0,0,0,0,0,0c0.5-0.4,0.7-1,0.5-1.5l-19.1-68.9c-0.2-0.6-0.7-1-1.4-1h-29.6c-0.8,0-1.4,0.7-1.4,1.4
		c0,0,0,0,0,0c0,0.3,0.1,0.6,0.3,0.8L1277,1653.1z M1328.7,1571.7c-0.2,0.8,0.2,1.5,1,1.8c0.1,0,0.3,0.1,0.4,0.1h26.4
		c0.8,0,1.4-0.6,1.4-1.4c0-0.3-0.1-0.6-0.3-0.9l-19.1-26.1c-0.5-0.6-1.3-0.8-2-0.3c0,0,0,0,0,0c-0.2,0.2-0.4,0.5-0.5,0.8
		L1328.7,1571.7z M1255.9,1573.5c0.8,0,1.4-0.6,1.4-1.4c0,0,0,0,0,0c0-0.1,0-0.3-0.1-0.4l-7.2-26.1c-0.2-0.7-1-1.2-1.7-1
		c-0.3,0.1-0.6,0.3-0.8,0.5l-19.1,26.1c-0.5,0.6-0.3,1.5,0.3,2c0.2,0.2,0.5,0.3,0.8,0.3L1255.9,1573.5z M1264.9,1567.5
		c0.2,0.8,1,1.2,1.7,1c0.4-0.1,0.7-0.4,0.9-0.8l14.5-30.7c0.3-0.7,0-1.6-0.7-1.9c-0.2-0.1-0.4-0.1-0.6-0.1h-23
		c-0.4,0-0.9,0.2-1.1,0.6c-0.2,0.4-0.3,0.8-0.2,1.2L1264.9,1567.5z M1318.5,1567.7c0.3,0.7,1.2,1,1.9,0.7c0.4-0.2,0.7-0.5,0.8-0.9
		l8.5-30.7c0.2-0.8-0.2-1.5-1-1.8c-0.1,0-0.2-0.1-0.4-0.1h-23c-0.8,0-1.4,0.6-1.4,1.4c0,0.2,0,0.4,0.1,0.6L1318.5,1567.7z"/>
</g>
</svg>
