<?xml version="1.0" encoding="utf-8"?>
<!-- Generator: Adobe Illustrator 21.1.0, SVG Export Plug-In . SVG Version: 6.00 Build 0)  -->
<svg version="1.1" id="Слой_1" xmlns="http://www.w3.org/2000/svg" xmlns:xlink="http://www.w3.org/1999/xlink" x="0px" y="0px"
	 viewBox="0 0 287 218" style="enable-background:new 0 0 287 218;" xml:space="preserve">
<style type="text/css">
	.st0{opacity:0.15;fill:#FFFFFF;enable-background:new    ;}
</style>
<g id="Mask_Group_7" transform="translate(-734 -1243)">
	<path id="Path_703" class="st0" d="M1048.6,1347.8H1035c-3.1,0.1-5.5,2.6-5.4,5.6c0.1,3,2.5,5.4,5.4,5.4h13.5
		c3.1-0.1,5.5-2.6,5.4-5.6C1054,1350.3,1051.6,1347.9,1048.6,1347.8L1048.6,1347.8z M1026.9,1325.7c1.4,0,2.8-0.6,3.8-1.6l10.8-11.1
		c2.2-2.1,2.2-5.6,0.1-7.8c-2-2.2-5.4-2.3-7.6-0.2c0,0-0.1,0.1-0.1,0.1c0,0-0.1,0.1-0.1,0.1l-10.8,11.1c-2.1,2.2-2.1,5.6,0,7.8
		C1024.1,1325.1,1025.5,1325.7,1026.9,1325.7z M948.4,1350.6c0-3-2.4-5.5-5.4-5.5h-13.5c-3.1,0.1-5.5,2.6-5.4,5.6
		c0.1,3,2.5,5.4,5.4,5.4H943C946,1356.1,948.4,1353.6,948.4,1350.6z M947.3,1324.1c2.1,2.1,5.5,2.1,7.5,0c0,0,0.1-0.1,0.1-0.1
		c2-2.2,2-5.5,0-7.7l-10.8-11.1c-2.1-2.1-5.5-2.1-7.5,0c0,0-0.1,0.1-0.1,0.1c-2,2.2-2,5.5,0,7.7L947.3,1324.1z M989,1314.7
		c3,0,5.4-2.5,5.4-5.5v-16.6c0.1-3-2.3-5.5-5.3-5.5s-5.5,2.3-5.5,5.3c0,0.1,0,0.2,0,0.3v16.6C983.6,1312.2,986,1314.6,989,1314.7z
		 M951.8,1389.1c-0.1,1.5,1,2.8,2.5,3c0.1,0,0.2,0,0.2,0h27.8c1.5,0,2.7-1.3,2.7-2.8v-8.2c0-0.5-0.3-1-0.8-1.2
		c-5.4-2.8-7.6-9.4-4.9-14.8c2.5-5.4,8.9-7.6,14.3-5.1c0.1,0,0.2,0.1,0.2,0.1c5.4,2.8,7.6,9.4,4.9,14.8c-1,2.2-2.8,3.9-4.9,5
		c-0.5,0.2-0.8,0.7-0.8,1.2v8.2c0,1.5,1.2,2.7,2.7,2.8h27.8c1.5,0,2.7-1.2,2.7-2.8c0-0.1,0-0.2,0-0.2l-3.8-48.1
		c-0.5-7.1-6.4-12.5-13.5-12.6h-39.8c-7.1,0-13,5.5-13.5,12.6L951.8,1389.1z M1026.9,1400.4h-75.8c-6,0.1-10.9,5-10.8,11.1
		c0,0,0,0,0,0v2.8c0,1.5,1.2,2.7,2.7,2.8h92.1c1.5,0,2.7-1.3,2.7-2.8v-2.8C1037.8,1405.4,1033,1400.5,1026.9,1400.4
		C1026.9,1400.4,1026.9,1400.4,1026.9,1400.4L1026.9,1400.4z"/>
</g>
</svg>
