<?xml version="1.0" encoding="utf-8"?>
<!-- Generator: Adobe Illustrator 21.1.0, SVG Export Plug-In . SVG Version: 6.00 Build 0)  -->
<svg version="1.1" id="Слой_1" xmlns="http://www.w3.org/2000/svg" xmlns:xlink="http://www.w3.org/1999/xlink" x="0px" y="0px"
	 viewBox="0 0 287 218" style="enable-background:new 0 0 287 218;" xml:space="preserve">
<style type="text/css">
	.st0{opacity:0.15;fill:#FFFFFF;enable-background:new    ;}
</style>
<g id="Mask_Group_3" transform="translate(-734 -1491)">
	<path id="Path_706" class="st0" d="M1006.9,1526.3c-1.9-2.3-5.3-2.7-7.6-0.8c-0.6,0.5-1.2,1.2-1.5,1.9c-6.9,12.9-17.6,23.3-30.6,30
		c-29,16.7-34.2,35.7-34.3,36.1c-7.9,18.6-2.3,40.1,13.6,52.5c0.9,0.7,1.2,1.8,1,2.8l-4.6,20.9c-0.6,3,1.2,5.9,4.2,6.6
		c2.6,0.6,5.3-0.8,6.3-3.3c3.8-12,4-41.9,32-78.8c1.8-2.4,5.3-2.8,7.6-1c0,0,0,0,0,0c2.4,1.8,2.8,5.2,1.1,7.6
		c-11.2,14.6-19.5,31.3-24.4,49.1l0,0.1l-0.4,1.8c-0.3,1.5,0.6,2.9,2,3.3c0.2,0,0.4,0.1,0.6,0.1c8.2,0.3,16.3-1.7,23.3-5.7
		c9.4-5.7,17.3-13.6,22.8-23.1C1045.8,1579.7,1016.5,1538,1006.9,1526.3z"/>
</g>
</svg>
