<?xml version="1.0" encoding="utf-8"?>
<!-- Generator: Adobe Illustrator 21.1.0, SVG Export Plug-In . SVG Version: 6.00 Build 0)  -->
<svg version="1.1" id="Слой_1" xmlns="http://www.w3.org/2000/svg" xmlns:xlink="http://www.w3.org/1999/xlink" x="0px" y="0px"
	 viewBox="0 0 287 218" style="enable-background:new 0 0 287 218;" xml:space="preserve">
<style type="text/css">
	.st0{opacity:0.1;fill:#FFFFFF;enable-background:new    ;}
</style>
<g id="Mask_Group_5" transform="translate(-100 -1491)">
	<path id="Path_708" class="st0" d="M346.6,1634.4c-5.6,7-15.8,8.1-22.8,2.5c0,0-0.1,0-0.1-0.1c-0.5-0.4-0.9-0.8-1.3-1.2l-19-19.1
		c-6.4-6.2-6.9-16.3-1.2-23.1c6-6.7,16.2-7.3,22.9-1.3c0,0,0,0,0.1,0.1c0.2,0.2,0.4,0.4,0.6,0.6l5.8,5.9c0.5,0.5,1.4,0.5,1.9,0
		c0,0,0,0,0,0c0,0,0.1-0.1,0.1-0.1l24-30c0.5-0.6,0.4-1.5-0.2-2c0,0-0.1-0.1-0.1-0.1c-25-15.2-57.6-7.2-72.8,17.8
		s-7.2,57.6,17.8,72.8c25,15.2,57.6,7.2,72.8-17.8c7.9-13.1,9.8-29,5.2-43.6c-0.2-0.7-1-1.1-1.7-0.9c0,0,0,0,0,0
		c-0.2,0.1-0.5,0.2-0.6,0.4L346.6,1634.4z M404,1536.8c-3.5-2.8-8.6-2.3-11.4,1.2c0,0,0,0,0,0l-59.3,73.9l-13.3-13.4
		c-3.1-3.2-8.2-3.3-11.5-0.2c0,0,0,0,0,0c-3.2,3.1-3.3,8.3-0.2,11.5c0.1,0.1,0.1,0.1,0.2,0.2l19.7,19.8c3.2,3.2,8.4,3.1,11.6-0.1
		c0,0,0,0,0,0c0.2-0.2,0.3-0.3,0.5-0.5l65-81C408,1544.8,407.5,1539.6,404,1536.8L404,1536.8z"/>
</g>
</svg>
