<?xml version="1.0" encoding="utf-8"?>
<!-- Generator: Adobe Illustrator 21.1.0, SVG Export Plug-In . SVG Version: 6.00 Build 0)  -->
<svg version="1.1" id="Слой_1" xmlns="http://www.w3.org/2000/svg" xmlns:xlink="http://www.w3.org/1999/xlink" x="0px" y="0px"
	 viewBox="0 0 287 218" style="enable-background:new 0 0 287 218;" xml:space="preserve">
<style type="text/css">
	.st0{opacity:0.15;fill:#FFFFFF;enable-background:new    ;}
</style>
<g id="Mask_Group_8" transform="translate(-1051 -1243)">
	<path id="Path_704" class="st0" d="M1312.5,1384.7c-0.2-0.5-0.7-0.7-1.2-0.8h-36.6c-0.5,0-1,0.3-1.2,0.8l-3.4,6.8
		c-0.3,0.7-0.1,1.5,0.6,1.8c0.2,0.1,0.4,0.1,0.6,0.1h43.4c0.7,0,1.4-0.6,1.4-1.4c0,0,0,0,0,0c0-0.2,0-0.4-0.1-0.6L1312.5,1384.7z
		 M1349.2,1336.4h3.3c3,0,5.4-2.4,5.4-5.4v-5.4c0-3-2.4-5.4-5.4-5.4h-5.4c-2.6,0-5,1.2-6.5,3.3c-0.3,0.4-0.8,0.4-1.2,0.2
		c0,0,0,0,0,0c-0.2-0.1-0.3-0.3-0.3-0.5l-2.6-12.9c-1.5-7.6-8.2-13.1-15.9-13.1h-55.4c-7.8,0-14.4,5.5-15.9,13.1l-2.6,12.9
		c-0.1,0.4-0.5,0.7-1,0.7c-0.2,0-0.4-0.2-0.5-0.3c-1.5-2-3.9-3.3-6.5-3.3h-5.4c-3,0-5.4,2.4-5.4,5.4c0,0,0,0,0,0v5.4
		c0,3,2.4,5.4,5.4,5.4h3.3c0.8,0,1.4,0.6,1.4,1.4c0,0.4-0.2,0.8-0.5,1.1c-6,4.6-9.6,11.7-9.6,19.3v27.2c0,3.3,2,6.3,5.1,7.5
		c0.2,0.1,0.3,0.3,0.3,0.5v5.5c0,4.5,3.6,8.1,8.1,8.1h10.8c4.5,0,8.1-3.7,8.1-8.1v-6.1c0-0.2,0-0.4,0.1-0.6l7-14.1
		c0.7-1.4,2.1-2.3,3.6-2.3h43.3c1.5,0,2.9,0.9,3.6,2.3l7,14.1c0.1,0.2,0.1,0.4,0.1,0.6v6.1c0,4.5,3.6,8.1,8.1,8.1h10.8
		c4.5,0,8.1-3.7,8.1-8.1v-5.5c0-0.2,0.1-0.5,0.3-0.5c3.1-1.2,5.1-4.2,5.1-7.5v-27.2c0-7.6-3.5-14.7-9.6-19.3
		c-0.6-0.5-0.7-1.3-0.3-1.9C1348.4,1336.6,1348.8,1336.4,1349.2,1336.4z M1251.5,1363c-0.3,0.3-0.7,0.5-1.1,0.5h-3.5
		c-5.4,0-10-4-10.7-9.3c-0.1-0.7,0.4-1.4,1.2-1.5c0.1,0,0.1,0,0.2,0h10.9c0.6,0,1.2,0.4,1.3,1l2,8.1
		C1251.9,1362.3,1251.8,1362.7,1251.5,1363L1251.5,1363z M1324.9,1354.3l-2.4,9.9c-0.1,0.5-0.5,0.9-1,1l-2.8,0.7
		c-0.9,0.2-1.7,0.3-2.6,0.3h-48.4c-1.2,0-2.3-0.2-3.4-0.5c-0.2-0.1-0.4-0.3-0.5-0.5l-2.7-10.8c-0.2-0.7,0.3-1.5,1-1.6
		c0.1,0,0.2,0,0.3,0h61.2c0.7,0,1.4,0.6,1.4,1.4c0,0,0,0,0,0C1325,1354.1,1324.9,1354.2,1324.9,1354.3L1324.9,1354.3z
		 M1329.7,1333.2c-0.3,0.3-0.6,0.5-1.1,0.5h-71.2c-0.7,0-1.4-0.6-1.4-1.4c0,0,0,0,0,0c0-0.1,0-0.2,0-0.3l4-19.8
		c0.5-2.5,2.7-4.3,5.3-4.3h55.4c2.6,0,4.8,1.8,5.3,4.3l4,19.8C1330,1332.4,1329.9,1332.8,1329.7,1333.2L1329.7,1333.2z
		 M1348.4,1352.7c0.4,0,0.8,0.2,1,0.5c0.3,0.3,0.4,0.7,0.3,1.1c-0.8,5.3-5.3,9.3-10.7,9.3h-3.5c-0.7,0-1.4-0.6-1.4-1.3
		c0-0.1,0-0.2,0-0.3l2-8.1c0.1-0.6,0.7-1,1.3-1H1348.4z"/>
</g>
</svg>
