<?xml version="1.0" encoding="utf-8"?>
<!-- Generator: Adobe Illustrator 21.1.0, SVG Export Plug-In . SVG Version: 6.00 Build 0)  -->
<svg version="1.1" id="Слой_1" xmlns="http://www.w3.org/2000/svg" xmlns:xlink="http://www.w3.org/1999/xlink" x="0px" y="0px"
	 viewBox="0 0 287 218" style="enable-background:new 0 0 287 218;" xml:space="preserve">
<style type="text/css">
	.st0{opacity:0.15;fill:#FFFFFF;enable-background:new    ;}
</style>
<g id="Mask_Group_4" transform="translate(-417 -1491)">
	<path id="Path_707" class="st0" d="M714.2,1567.2l-57.2-32c-3.2-1.7-7-1.6-10.2,0.1l-57.1,31.9c-2.6,1.5-3.5,4.8-2.1,7.4
		c1.5,2.6,4.8,3.5,7.4,2.1l56.1-31.5c0.4-0.2,0.9-0.2,1.3,0l56.4,31.5c2.6,1.5,5.9,0.5,7.4-2.1
		C717.8,1571.9,716.8,1568.6,714.2,1567.2L714.2,1567.2L714.2,1567.2z M652,1574.6c7.5,0,13.5,6.1,13.5,13.5s-6.1,13.5-13.5,13.5
		s-13.5-6.1-13.5-13.5C638.5,1580.7,644.5,1574.6,652,1574.6C652,1574.6,652,1574.6,652,1574.6z M652,1604.4c-10.5,0-19,8.5-19,19
		l0,0v10.8c0,1.5,1.2,2.7,2.7,2.7h3.2c1.4,0,2.6,1.1,2.7,2.4l2.2,22.2c0.1,1.4,1.3,2.4,2.7,2.4h10.8c1.4,0,2.6-1,2.7-2.4l2.2-22.2
		c0.1-1.4,1.3-2.4,2.7-2.4h3.2c1.5,0,2.7-1.2,2.7-2.7v-10.8C671,1612.9,662.5,1604.4,652,1604.4L652,1604.4z M696.7,1582.8
		c6.7,0,12.2,5.5,12.2,12.2c0,6.7-5.5,12.2-12.2,12.2c-6.7,0-12.2-5.5-12.2-12.2c0,0,0,0,0,0C684.5,1588.2,690,1582.8,696.7,1582.8
		C696.7,1582.8,696.7,1582.8,696.7,1582.8z M696.7,1609.8c-9.7,0-17.6,7.9-17.6,17.6v9.5c0,1.5,1.2,2.7,2.7,2.7h2.6
		c1.4,0,2.6,1,2.7,2.4l2,19.5c0.1,1.4,1.3,2.4,2.7,2.4h9.9c1.4,0,2.6-1,2.7-2.4l2-19.5c0.1-1.4,1.3-2.4,2.7-2.4h2.5
		c1.5,0,2.7-1.2,2.7-2.7v-9.5C714.3,1617.7,706.4,1609.8,696.7,1609.8z M607.3,1582.8c6.7,0,12.2,5.5,12.2,12.2s-5.5,12.2-12.2,12.2
		c-6.7,0-12.2-5.5-12.2-12.2C595.1,1588.2,600.6,1582.8,607.3,1582.8C607.3,1582.8,607.3,1582.8,607.3,1582.8z M607.3,1609.8
		c-9.7,0-17.6,7.9-17.6,17.6v9.5c0,1.5,1.2,2.7,2.7,2.7h2.5c1.4,0,2.6,1,2.7,2.4l2,19.5c0.1,1.4,1.3,2.4,2.7,2.4h9.9
		c1.4,0,2.6-1,2.7-2.4l2-19.5c0.1-1.4,1.3-2.4,2.7-2.4h2.5c1.5,0,2.7-1.2,2.7-2.7v-9.5C624.9,1617.7,617,1609.8,607.3,1609.8z"/>
</g>
</svg>
