<svg xmlns="http://www.w3.org/2000/svg" width="16" height="13.333" viewBox="0 0 16 13.333">
    <defs>
        <style>
            .cls-1{fill:#fff}
        </style>
    </defs>
    <path id="Иконка_удалённость" d="M15.065 7.46a.171.171 0 0 1-.046-.141.168.168 0 0 1 .081-.119l.54-.313a1.013 1.013 0 0 0-1.013-1.755l-.719.415a.169.169 0 0 1-.25-.119l-.27-1.609a2.019 2.019 0 0 0-2-1.693H4.905a2.02 2.02 0 0 0-2 1.694l-.27 1.609a.169.169 0 0 1-.251.119l-.715-.418A1.013 1.013 0 0 0 .656 6.885L1.2 7.2a.168.168 0 0 1 .083.122.171.171 0 0 1-.046.141 3.009 3.009 0 0 0-.851 2.086V10.9a1.683 1.683 0 0 0 1.074 1.563.169.169 0 0 1 .107.157v1.317a1.519 1.519 0 1 0 3.038 0v-1.181a.169.169 0 0 1 .169-.169h6.751a.169.169 0 0 1 .169.169v1.182a1.519 1.519 0 1 0 3.038 0v-1.315a.169.169 0 0 1 .107-.157 1.683 1.683 0 0 0 1.075-1.566V9.551a3.006 3.006 0 0 0-.849-2.091zM4.905 3.475h6.489a.675.675 0 0 1 .666.564l.323 1.94a.171.171 0 0 1-.038.135.169.169 0 0 1-.129.059H4.083A.169.169 0 0 1 3.914 6a.184.184 0 0 1 0-.028l.323-1.94a.675.675 0 0 1 .668-.557zm8.309 7.425a1.013 1.013 0 1 1 1.013-1.013 1.013 1.013 0 0 1-1.013 1.013zM2.074 9.889A1.013 1.013 0 1 1 3.087 10.9a1.013 1.013 0 0 1-1.013-1.011z" class="cls-1" data-name="Иконка удалённость" transform="translate(-.15 -2.123)"/>
</svg>
