<svg xmlns="http://www.w3.org/2000/svg" width="24" height="20" viewBox="0 0 24 20">
    <defs>
        <style>
            .cls-1{fill:#2871e5}
        </style>
    </defs>
    <path id="Иконка_удалённость" d="M22.523 10.128a.256.256 0 0 1-.069-.212.252.252 0 0 1 .125-.183l.81-.469a1.52 1.52 0 0 0-1.519-2.633l-1.079.623a.254.254 0 0 1-.376-.178l-.405-2.414a3.029 3.029 0 0 0-3-2.539H7.283a3.03 3.03 0 0 0-3 2.541l-.401 2.413a.253.253 0 0 1-.377.178l-1.076-.622A1.52 1.52 0 0 0 .91 9.266l.81.469a.252.252 0 0 1 .125.183.256.256 0 0 1-.069.212A4.513 4.513 0 0 0 .5 13.261v2.026a2.524 2.524 0 0 0 1.611 2.346.254.254 0 0 1 .161.236v1.976a2.279 2.279 0 1 0 4.557 0v-1.773a.253.253 0 0 1 .253-.253h10.132a.253.253 0 0 1 .253.253v1.772a2.279 2.279 0 1 0 4.557 0v-1.972a.254.254 0 0 1 .161-.236 2.524 2.524 0 0 0 1.615-2.345v-2.026a4.509 4.509 0 0 0-1.277-3.137zM7.283 4.151h9.734a1.012 1.012 0 0 1 1 .847l.485 2.91a.257.257 0 0 1-.057.2.254.254 0 0 1-.193.089H6.05a.253.253 0 0 1-.25-.252.276.276 0 0 1 0-.042l.485-2.91a1.012 1.012 0 0 1 .998-.842zm12.462 11.14a1.519 1.519 0 1 1 1.519-1.519 1.52 1.52 0 0 1-1.518 1.519zM3.036 13.772a1.519 1.519 0 1 1 1.519 1.519 1.52 1.52 0 0 1-1.519-1.519z" class="cls-1" data-name="Иконка удалённость" transform="translate(-.149 -2.123)"/>
</svg>
