<svg xmlns="http://www.w3.org/2000/svg" width="16" height="16" viewBox="0 0 16 16">
    <defs>
        <style>
            .cls-1{fill:#f91c3d;opacity:.6}
        </style>
    </defs>
    <path id="Крестик" d="M11.777 4.222a.833.833 0 0 0-1.177 0L8.117 6.7a.167.167 0 0 1-.235 0L5.4 4.222a.833.833 0 0 0-1.213 1.143l.035.035L6.7 7.881a.167.167 0 0 1 0 .236L4.222 10.6a.834.834 0 0 0 0 1.179.846.846 0 0 0 1.179 0L7.882 9.3a.166.166 0 0 1 .235 0l2.483 2.48a.847.847 0 0 0 1.179 0 .834.834 0 0 0 0-1.179L9.3 8.117a.167.167 0 0 1 0-.236L11.777 5.4a.833.833 0 0 0 0-1.178zM8 0a8 8 0 1 0 8 8 8 8 0 0 0-8-8zm0 14.667A6.667 6.667 0 1 1 14.667 8 6.667 6.667 0 0 1 8 14.667z" class="cls-1"/>
</svg>
