<svg xmlns="http://www.w3.org/2000/svg" width="24" height="24" viewBox="0 0 24 24">
    <defs>
        <style>
            .cls-1{fill:#2871e5}
        </style>
    </defs>
    <g id="Иконка_все_посёлки" data-name="Иконка все посёлки">
        <circle id="Oval" cx="4" cy="4" r="4" class="cls-1" transform="translate(8 8)"/>
        <path id="Shape" d="M12 24a1 1 0 0 1-1-1v-1.623a.5.5 0 0 0-.421-.493 9 9 0 0 1-7.463-7.463.5.5 0 0 0-.493-.421H1a1 1 0 1 1 0-2h1.623a.5.5 0 0 0 .493-.421 9 9 0 0 1 7.463-7.463.5.5 0 0 0 .421-.493V1a1 1 0 1 1 2 0v1.623a.5.5 0 0 0 .421.493 9 9 0 0 1 7.463 7.463.5.5 0 0 0 .493.421H23a1 1 0 1 1 0 2h-1.623a.5.5 0 0 0-.493.421 9 9 0 0 1-7.463 7.463.5.5 0 0 0-.421.493V23a1 1 0 0 1-1 1zm0-19a7 7 0 1 0 7 7 7.007 7.007 0 0 0-7-7z" class="cls-1"/>
    </g>
</svg>
