<svg xmlns="http://www.w3.org/2000/svg" width="16" height="16" viewBox="0 0 16 16">
    <defs>
        <style>
            .cls-1{fill:#fff}
        </style>
    </defs>
    <path id="Иконка_участки" d="M15.667 10h-1.334A.334.334 0 0 1 14 9.67v-.333A.334.334 0 0 1 14.333 9h1a.333.333 0 0 0 .289-.5l-.837-1.468a.247.247 0 0 1 .093-.338.243.243 0 0 1 .122-.027.334.334 0 0 0 .283-.51l-1.667-2.669a.346.346 0 0 0-.482-.083.341.341 0 0 0-.083.083l-1.667 2.669a.334.334 0 0 0 .106.46.33.33 0 0 0 .177.051.248.248 0 0 1 .215.37L11.044 8.5a.334.334 0 0 0 .289.5h1a.334.334 0 0 1 .333.334v.554a.333.333 0 0 1-.25.323 9.735 9.735 0 0 0-3.565 1.878.167.167 0 0 0-.025.235.162.162 0 0 0 .075.053 8.448 8.448 0 0 1 3.79 2.441 1.338 1.338 0 0 1 .309.855.334.334 0 0 0 .333.334h2.333a.334.334 0 0 0 .334-.333v-5.336a.334.334 0 0 0-.333-.338zm-10.03 2.718a.334.334 0 0 1-.3-.334v-1.046a.334.334 0 0 1 .33-.338h2.026a.667.667 0 0 0 .546-1.05L6.881 8.013a.218.218 0 0 1 .053-.3.212.212 0 0 1 .125-.039.668.668 0 0 0 .563-1.025L6.113 4.272a.334.334 0 0 1 .067-.432.667.667 0 0 0 .138-.85L4.619.159a.347.347 0 0 0-.482-.09.34.34 0 0 0-.09.09l-1.7 2.831a.667.667 0 0 0 .138.85.334.334 0 0 1 .067.433L1.044 6.644a.667.667 0 0 0 .563 1.025.218.218 0 0 1 .218.218.222.222 0 0 1-.039.125L.427 9.955A.667.667 0 0 0 .973 11H3a.334.334 0 0 1 .333.334V12.5a.333.333 0 0 1-.27.327 7.784 7.784 0 0 0-2.914 1.236.334.334 0 0 0-.149.277v1.334a.334.334 0 0 0 .333.334h11.334a.333.333 0 0 0 .256-.548c-1.548-1.86-4.349-2.566-6.286-2.742z" class="cls-1" data-name="Иконка участки" transform="translate(0 -.008)"/>
</svg>
