<svg xmlns="http://www.w3.org/2000/svg" width="16" height="16" viewBox="0 0 16 16">
    <defs>
        <style>
            .cls-1{fill:#fff}
        </style>
    </defs>
    <path id="Иконка_участков" d="M17 1a1.049 1.049 0 0 0-1.091-1H2.091A1.049 1.049 0 0 0 1 1v10.667a1.049 1.049 0 0 0 1.091 1 .35.35 0 0 1 .364.333v2.333a.7.7 0 0 0 .727.667h1.454a.7.7 0 0 0 .727-.667V13a.35.35 0 0 1 .364-.333h6.545a.35.35 0 0 1 .364.333v2.333a.7.7 0 0 0 .727.667h1.455a.7.7 0 0 0 .727-.667V13a.35.35 0 0 1 .364-.333 1.049 1.049 0 0 0 1.091-1zm-2.931 5.448a.364.364 0 0 1-.342.219H13a.35.35 0 0 0-.364.333v3a.35.35 0 0 1-.364.333h-1.817a.35.35 0 0 1-.364-.333V8.5a1.1 1.1 0 0 0-2.182 0V10a.35.35 0 0 1-.364.333H5.727A.35.35 0 0 1 5.364 10V7A.35.35 0 0 0 5 6.667h-.727a.349.349 0 0 1-.363-.334.324.324 0 0 1 .128-.253l4.727-3.667a.39.39 0 0 1 .471 0l4.727 3.667a.315.315 0 0 1 .106.368z" class="cls-1" data-name="Иконка участков" transform="translate(-1)"/>
</svg>
