<svg xmlns="http://www.w3.org/2000/svg" width="287" height="218" viewBox="0 0 287 218">
    <defs>
        <style>
            .cls-1,.cls-3{fill:#fff}.cls-2{clip-path:url(#clip-path)}.cls-3{opacity:.15}.cls-4{filter:url(#Bg)}
        </style>
        <filter id="Bg" width="467" height="398" x="-70" y="-70" filterUnits="userSpaceOnUse">
            <feOffset dx="20" dy="20"/>
            <feGaussianBlur result="blur" stdDeviation="30"/>
            <feFlood flood-opacity=".102"/>
            <feComposite in2="blur" operator="in"/>
            <feComposite in="SourceGraphic"/>
        </filter>
        <clipPath id="clip-path"/>
    </defs>
    <g id="Mask_Group_1" class="cls-2" data-name="Mask Group 1" transform="translate(-100 -1243)">
        <path id="Path_701" d="M129.995 124.972a5.608 5.608 0 0 0-5.416-5.778H100.2a2.8 2.8 0 0 1-2.708-2.889V90.594a3 3 0 0 1 .645-1.872l18.649-23.406a2.635 2.635 0 0 1 2.064-1.017h5.725A5.6 5.6 0 0 0 130 58.528a5.765 5.765 0 0 0-3.613-5.454 2.878 2.878 0 0 1-1.809-2.721v-3.38a5.428 5.428 0 1 0-10.833 0v2.889a2.714 2.714 0 1 1-5.416 0v-2.89a5.428 5.428 0 1 0-10.833 0v2.889a2.8 2.8 0 0 1-2.708 2.889h-5.417a2.8 2.8 0 0 1-2.708-2.889v-2.889a5.428 5.428 0 1 0-10.833 0v2.889a2.714 2.714 0 1 1-5.416 0v-2.889a5.428 5.428 0 1 0-10.833 0v3.38a2.886 2.886 0 0 1-1.809 2.727 5.883 5.883 0 0 0-3.3 7.372 5.447 5.447 0 0 0 5.113 3.854h5.725a2.635 2.635 0 0 1 2.064 1.017l18.645 23.406a2.99 2.99 0 0 1 .645 1.866v25.711a2.8 2.8 0 0 1-2.708 2.889H48.748a2.8 2.8 0 0 1-2.708-2.889V54.547a3 3 0 0 1 .666-1.9l22.662-27.8a2.639 2.639 0 0 1 2.042-.994h4.42a5.608 5.608 0 0 0 5.416-5.778 5.667 5.667 0 0 0-2.708-4.875 2.93 2.93 0 0 1-1.365-2.513V6.528a5.428 5.428 0 1 0-10.833 0v2.889a2.714 2.714 0 1 1-5.416 0V6.528a5.428 5.428 0 1 0-10.833 0v2.889a2.8 2.8 0 0 1-2.708 2.889h-13.53a2.8 2.8 0 0 1-2.708-2.889V6.528A5.608 5.608 0 0 0 25.728.75a5.608 5.608 0 0 0-5.416 5.778v2.889a2.8 2.8 0 0 1-2.712 2.889 2.8 2.8 0 0 1-2.7-2.889V6.528A5.608 5.608 0 0 0 9.479.75a5.608 5.608 0 0 0-5.417 5.778v4.154a2.933 2.933 0 0 1-1.354 2.49A5.67 5.67 0 0 0 0 18.083a5.608 5.608 0 0 0 5.416 5.778h4.42a2.639 2.639 0 0 1 2.042.994l22.662 27.8a3 3 0 0 1 .666 1.9v61.759a2.8 2.8 0 0 1-2.708 2.889H5.416a5.79 5.79 0 0 0 0 11.556h119.162a5.608 5.608 0 0 0 5.417-5.787zM97.534 64.306a2.8 2.8 0 0 1 2.708 2.889 3 3 0 0 1-.645 1.872l-5.454 6.841a2.6 2.6 0 0 1-3.819.329 2.46 2.46 0 0 1-.309-.329l-5.454-6.841a3.021 3.021 0 0 1 .309-4.073 2.6 2.6 0 0 1 1.755-.688zM49.869 23.861a2.8 2.8 0 0 1 2.708 2.889 3.015 3.015 0 0 1-.666 1.9l-9.246 11.343a2.592 2.592 0 0 1-3.819.283 2.544 2.544 0 0 1-.265-.283L29.33 28.645a3.025 3.025 0 0 1 .265-4.073 2.622 2.622 0 0 1 1.777-.711z" class="cls-3" data-name="Path 701" transform="translate(277 1286.25)"/>
    </g>
</svg>
