<svg xmlns="http://www.w3.org/2000/svg" width="287" height="218" viewBox="0 0 287 218">
    <defs>
        <style>
            .cls-1,.cls-3{fill:#fff}.cls-2{clip-path:url(#clip-path)}.cls-3{opacity:.15}.cls-4{filter:url(#Bg)}
        </style>
        <filter id="Bg" width="467" height="398" x="-70" y="-70" filterUnits="userSpaceOnUse">
            <feOffset dx="20" dy="20"/>
            <feGaussianBlur result="blur" stdDeviation="30"/>
            <feFlood flood-opacity=".102"/>
            <feComposite in2="blur" operator="in"/>
            <feComposite in="SourceGraphic"/>
        </filter>
        <clipPath id="clip-path"/>
    </defs>
    <g id="Mask_Group_6" class="cls-2" data-name="Mask Group 6" transform="translate(-417 -1243)">
        <path id="Path_705" d="M15.676 64.369a3.7 3.7 0 0 1 3.709 3.683v9.29a7.417 7.417 0 0 0 14.834 0v-9.3a3.7 3.7 0 0 1 3.709-3.683H48.89a4.577 4.577 0 0 0 3.219-7.824l-8.3-10.735a.374.374 0 0 1 0-.442.361.361 0 0 1 .423-.125 4.662 4.662 0 0 0 5.874-2.961 4.613 4.613 0 0 0-1.142-4.715L37.645 23.66a.325.325 0 0 1 .371-.508 4.672 4.672 0 0 0 5.911-2.917 4.612 4.612 0 0 0-1.461-5.054l-12.958-14a3.725 3.725 0 0 0-5.244-.2c-.067.059-.134.133-.2.2L11 15.2a4.611 4.611 0 0 0-.5 6.534 4.675 4.675 0 0 0 4.955 1.4.337.337 0 0 1 .445.155.34.34 0 0 1-.037.346l-11.126 14a4.6 4.6 0 0 0 .089 6.534 4.678 4.678 0 0 0 4.651 1.09.364.364 0 0 1 .423.133.374.374 0 0 1 0 .442L1.443 56.553a4.551 4.551 0 0 0-.015 6.468A4.636 4.636 0 0 0 4.7 64.369h10.976zm148.431 71.414a.363.363 0 0 1 .059-.516.387.387 0 0 1 .378-.052 5.2 5.2 0 0 0 6.572-3.249 5.14 5.14 0 0 0-1.187-5.223l-12.609-15.47a.353.353 0 0 1 0-.442.364.364 0 0 1 .43-.133 5.2 5.2 0 0 0 6.49-3.411 5.141 5.141 0 0 0-1.58-5.429l-14.693-15.911a3.725 3.725 0 0 0-5.244-.206c-.074.066-.141.14-.208.206L127.682 101.9a5.129 5.129 0 0 0-.63 7.264 5.22 5.22 0 0 0 5.607 1.577.372.372 0 0 1 .438.118.363.363 0 0 1 0 .449l-12.387 15.547a5.133 5.133 0 0 0 .193 7.293 5.213 5.213 0 0 0 5.214 1.149.372.372 0 0 1 .438.118.363.363 0 0 1 0 .449l-9.5 12.06a5.073 5.073 0 0 0 .007 7.212 5.157 5.157 0 0 0 3.62 1.488h13.558a3.7 3.7 0 0 1 3.709 3.683v9.12a7.417 7.417 0 0 0 14.834 0v-9.194a3.7 3.7 0 0 1 3.709-3.683h13.4a5.093 5.093 0 0 0 3.6-8.715zm11.385-118.289a3.766 3.766 0 0 0-3.041-.788C91.2 31.8 25.526 91.221 2.844 170.164a3.694 3.694 0 0 0 3.568 4.671h59.277a3.716 3.716 0 0 0 3.479-2.313 152.967 152.967 0 0 1 47.818-63.9 3.677 3.677 0 0 0 1.409-2.947 12.021 12.021 0 0 1 4.161-9.164l14.552-15.632a10.749 10.749 0 0 1 8.2-3.543 11.146 11.146 0 0 1 8.159 3.551l2.678 2.9a3.735 3.735 0 0 0 3.99.972 151.542 151.542 0 0 1 13.959-4.28 3.692 3.692 0 0 0 2.789-3.566v-56.59a3.67 3.67 0 0 0-1.391-2.829zM45.864 151.541q-2.292 4.906-4.3 9.945a3.709 3.709 0 0 1-6.9-2.726q2.092-5.249 4.45-10.314a3.714 3.714 0 0 1 5-1.569 3.669 3.669 0 0 1 1.721 4.671zm22.051-35.663a182.851 182.851 0 0 0-12.046 17.172 3.711 3.711 0 0 1-3.16 1.753 3.686 3.686 0 0 1-3.152-5.606 193.82 193.82 0 0 1 12.52-17.865 3.73 3.73 0 0 1 5.207-.626 3.671 3.671 0 0 1 .631 5.172zm29.572-29.7a183.68 183.68 0 0 0-15.643 14 3.727 3.727 0 0 1-5.229-.361 3.667 3.667 0 0 1-.037-4.8 191.384 191.384 0 0 1 16.273-14.573 3.727 3.727 0 0 1 5.236.309 3.667 3.667 0 0 1-.312 5.2 3.029 3.029 0 0 1-.288.229zm35.6-22.248a183.052 183.052 0 0 0-18.439 10.1 3.6 3.6 0 0 1-1.973.567 3.678 3.678 0 0 1-1.973-6.836 188.264 188.264 0 0 1 19.188-10.52 3.718 3.718 0 0 1 4.821 2.048 3.673 3.673 0 0 1-1.624 4.582zm29.922-11.13q-5.274 1.47-10.384 3.212a3.78 3.78 0 0 1-1.209.2 3.68 3.68 0 0 1-1.2-7.161q5.34-1.823 10.829-3.33a3.715 3.715 0 0 1 4.732 2.24 3.677 3.677 0 0 1-2.255 4.7 2.658 2.658 0 0 1-.49.133z" class="cls-3" data-name="Path 705" transform="translate(627.121 1287.999)"/>
    </g>
</svg>
