<svg xmlns="http://www.w3.org/2000/svg" width="16" height="16" viewBox="0 0 16 16">
    <defs>
        <style>
            .cls-1{fill:#2871e5}
        </style>
    </defs>
    <path id="Пользователь_иконка" d="M8 0a8 8 0 1 0 8 8 8 8 0 0 0-8-8zm0 1.667a6.321 6.321 0 0 1 4.867 10.374.334.334 0 0 1-.393.091c-.587-.267-1.3-.527-2.107-.825l-.5-.183a.533.533 0 0 1-.216-.368 1.327 1.327 0 0 1 .129-1.023 4.43 4.43 0 0 0 1.153-3.4 2.862 2.862 0 0 0-2.6-3.1A2.758 2.758 0 0 0 8 3.221 2.863 2.863 0 0 0 5.057 6a2.907 2.907 0 0 0 .01.332 4.424 4.424 0 0 0 1.153 3.4 1.326 1.326 0 0 1 .128 1.022.533.533 0 0 1-.216.368l-.5.183c-.81.3-1.52.56-2.107.825a.334.334 0 0 1-.393-.091A6.321 6.321 0 0 1 8 1.667z" class="cls-1" data-name="Пользователь иконка"/>
</svg>
