<svg xmlns="http://www.w3.org/2000/svg" width="16" height="16.001" viewBox="0 0 16 16.001">
    <defs>
        <style>
            .cls-1{fill:#fff}
        </style>
    </defs>
    <path id="Иконка_телефона" d="M8.01.008a8 8 0 0 0 0 16c2.986 0 4.094-1.163 4.5-2.139a2.68 2.68 0 0 0-.12-2.4 1.275 1.275 0 0 0-.011-1.719l-.958-.95a1.289 1.289 0 0 0-1.816.067L9.465 9a18.782 18.782 0 0 1-2.456-2.449l.141-.14a1.29 1.29 0 0 0 .07-1.817l-.954-.955a1.288 1.288 0 0 0-1.816.071l-.582.582a1.811 1.811 0 0 0-.32 2.218 19.2 19.2 0 0 0 5.958 5.958 1.629 1.629 0 0 0 .875.248 1.883 1.883 0 0 0 .982-.29 1.631 1.631 0 0 1-.186 1.128c-.44.734-1.534 1.121-3.168 1.121a6.665 6.665 0 1 1 5.5-2.9.667.667 0 0 0 1.1.756A8 8 0 0 0 8.01.008z" class="cls-1" data-name="Иконка телефона" transform="translate(-.011 -.008)"/>
</svg>
