<svg xmlns="http://www.w3.org/2000/svg" width="16" height="16.005" viewBox="0 0 16 16.005">
    <defs>
        <style>
            .cls-1{fill:#2871e5}
        </style>
    </defs>
    <path id="Иконка_водоём" d="M4.714 9.82a1.4 1.4 0 0 0 .991.6 1.843 1.843 0 0 0 1.258-.7 1.632 1.632 0 0 1 2.327-.389 1.716 1.716 0 0 1 .531.659.849.849 0 0 0 .7.432 1.237 1.237 0 0 0 .985-.583 1.549 1.549 0 0 1 .386-.454.176.176 0 0 0 .033-.236L8.853 4.7a1.056 1.056 0 0 1 .232-1.44 1 1 0 0 1 .339-.16l2.616-.677a1.037 1.037 0 0 0 .709-1.264 1 1 0 0 0-1.195-.742l-2.616.676a3.109 3.109 0 0 0-2.182 3.761 3.149 3.149 0 0 0 .47 1.046l.2.285-3.666 2.6a.176.176 0 0 0-.043.24.167.167 0 0 0 .083.075 1.642 1.642 0 0 1 .914.72zm7.617-6.041a1.637 1.637 0 1 1-1.583 1.637 1.61 1.61 0 0 1 1.583-1.637zm-6.626 9.054a3.837 3.837 0 0 0 2.54-1.033 3 3 0 0 0 2.277 1.034 3.377 3.377 0 0 0 2.414-1.034 3.133 3.133 0 0 0 2.44 1.021.681.681 0 0 0 .624-.733.689.689 0 0 0-.712-.64 2.229 2.229 0 0 1-1.788-1.082.685.685 0 0 0-.977-.163.708.708 0 0 0-.167.178 2.234 2.234 0 0 1-1.835 1.074 1.865 1.865 0 0 1-1.6-1.021.684.684 0 0 0-.945-.28.7.7 0 0 0-.2.172 2.84 2.84 0 0 1-2.066 1.129 2.355 2.355 0 0 1-1.84-1.089.681.681 0 0 0-.967-.178.671.671 0 0 0-.125.116c-.009.012-.978 1.254-2.072 1.171a.661.661 0 0 0-.706.616v.038a.681.681 0 0 0 .631.724h.148a3.83 3.83 0 0 0 2.487-1.103 3.434 3.434 0 0 0 2.439 1.083zm9.579 2.151A2.246 2.246 0 0 1 13.5 13.9a.684.684 0 0 0-.975-.164.708.708 0 0 0-.169.179 2.234 2.234 0 0 1-1.835 1.074 1.862 1.862 0 0 1-1.6-1.021.684.684 0 0 0-.947-.278.708.708 0 0 0-.2.17 2.84 2.84 0 0 1-2.066 1.129A2.356 2.356 0 0 1 3.866 13.9a.682.682 0 0 0-1.092-.063 3.1 3.1 0 0 1-1.995 1.179H.7a.659.659 0 0 0-.7.62v.029a.682.682 0 0 0 .63.725h.148a3.834 3.834 0 0 0 2.488-1.107 3.438 3.438 0 0 0 2.44 1.083 3.837 3.837 0 0 0 2.54-1.034 3 3 0 0 0 2.277 1.034 3.377 3.377 0 0 0 2.414-1.034 3.159 3.159 0 0 0 2.44 1.021.689.689 0 0 0-.093-1.373z" class="cls-1" data-name="Иконка водоём" transform="translate(.001 -.389)"/>
</svg>
